<svg xmlns="http://www.w3.org/2000/svg" width="240.006" height="240.006" viewBox="0 0 510 510">
  <defs>
    <style>
      .cls-1 {
        fill: red;
        fill-rule: evenodd;
      }
    </style>
  </defs>
  <path class="cls-1" d="M257,2C397.833,2,512,116.167,512,257S397.833,512,257,512,2,397.833,2,257,116.167,2,257,2Zm1,30c125.369,0,227,100.736,227,225S383.369,482,258,482,31,381.264,31,257,132.631,32,258,32ZM217,184c-13.736,2.435-17.578-.361-26-6h-2l-2-3h-2l-3-4h-2l-2-3h-2l-2-3h-2q-0.5-1-1-2h-2v-1l-4-1v-1l-6-1v-1h-7a2.633,2.633,0,0,0-3-1v1h-7v1l-9,2v1l-6,2v1h-2q-0.5,1-1,2h-2l-2,3h-2l-3,4h-2l-3,4h-2l-2,3h-2q-0.5,1-1,2c-5.341,3.551-11.047,4.978-20,5-1.382-2.612-1.769-1.693-2-6h1l1-5h1v-2l2-1v-2l5-4,5-6h2l2-3,3-1q0.5-1,1-2l4-1q0.5-1,1-2l4-1v-1h2v-1l6-2v-1l6-1v-1l14-1v-1h5v1h14v1h6v1l13,2,19,8v1l3,1q0.5,1,1,2h2l4,5,6,5v2c1.853,3.218,3.752,4.805,4,10C216.861,183.139,217.6,182,217,184Zm149-36c12.451-.34,21.66.626,30,4h3v1l6,2v1l4,1,1,2h2v1l3,1,1,2h2l2,3h2l3,4,3,1,1,2c2.937,2.885,13.993,11.216,11,19h-1c-1.976,4.022-3.012,4.971-9,5-1.574-1.8-1.988-.857-4-2v-1h-2l-2-3h-2l-2-3h-2l-2-3h-2l-3-4h-2l-2-3-3-1-1-2h-2l-1-2-3-1v-1l-6-2v-1c-3.934-2.095-18.862-8.061-26-6v1h-5v1h-3v1h-3l-14,10-4,5h-2l-2,3h-2l-1,2-4,1v1h-4c-4.749,1.526-7.584.126-13,0-1.643-3.1-1.9-1.8-2-7h1q0.5-2.5,1-5l2-1v-2l3-2,3-4h2l2-3h2l2-2h2v-1h2v-1h2v-1h2v-1h2v-1h3v-1h3v-1h3v-1h3v-1l8-1v-1C355.974,148.769,363.407,150.3,366,148ZM137,176c19.119,0.314,34,8.355,48,14,7.12,2.871,18.076,4.355,20,12h1v3c-2.437.918-6.193,1.037-10,1l-18-5v-1h-3v-1h-2v-1l-18-5v-1h-5v-1l-16-1v1l-13-1c-1.094-2.078-1.611-1.771-2-5l5-4v-1l6-2v-1h7v-1Zm107,4h3l5,7q-0.5,7.5-1,15c-2.937,1.708-2.863,2.891-8,3a21.9,21.9,0,0,0-4-5V184A21.9,21.9,0,0,0,244,180Zm37,24a39.688,39.688,0,0,1-8,1,13.3,13.3,0,0,0-3-4q-0.5-6-1-12h1q0.5-2.5,1-5c2.551-1.39,3.1-2.581,7-3,2.814,3.306,3.912,1.317,4,8C284.932,192.1,281.674,200.9,281,204Zm94-23c12.8-.4,26.875,2.168,28,13a12.119,12.119,0,0,0-2,2H387v-1l-20,1-39,12H316a3.982,3.982,0,0,0-2-2l1-3c1.21-.906,1.125-2.356,2-3h2v-1l6-2v-1l6-1v-1h3v-1h3v-1h3v-1h2v-1l6-1v-1l9-2v-1ZM99,228l11,4v1h3v1h2v1l4,1v1h3v1h2v1h3v1h3v1h3v1l13,1v1c3.232,0.91,8.288-.524,10-1h11v-1h7v-1h6c6.261-1.847,12-3.265,19-2,1.679,2.84,3.451,2.719,4,7-1.139,1.139-.4,0-1,2l-3,2v1h-2q-0.5,1-1,2l-4,1v1h-3v1h-3v1h-4v1h-5v1H167v1H150v-1h-9l-14-2v-1h-4v-1h-3v-1h-3v-1h-3v-1h-3v-1h-2v-1h-2v-1l-6-2v-1c-7.183-2.521-14.9,7.967-21,4v-1l-2-1v-2l-2-1v-5c2.911-1.574,5.536-3.846,6-8l-9-3v-1l-2-1v-2H70l1-3,6-5,1-2h2l1-2,3-1v-1l4-1v-1l6-2v-1h3v-1h2v-1l13-3c9.508-3.165,30.469-6.649,43-3h6v1l8,1v1h2v1h3v1h3v1l6,2v1h2v1h3v1h2v1h2q0.5,1,1,2l6,2v1h2q0.5,1,1,2l4,1,2,3h2l2,3h2v1c1.484,1.372,1.314.509,2,3h1c0.943,1.683-1.787,6.883-2,7h-2v1c-1.492,1.011-8.585.828-11,0v-1l-6-1v-1l-6-2v-1h-2v-1h-2v-1h-2v-1l-3-1q-0.5-1-1-2h-6c-1.735,1.975-2.329.847-4,2l-9,10h-2v1c-1.237.961-1.938,0.717-3,2-4.911.226-4.8,1.316-9,0h-4v-1h-2v-1h-2q-0.5-1-1-2h-2v-1l-4-3v-2l-2-1v-2l-2-1v-2h-1v-2h-1c-1.473-3.086.9-1.762-2-4v-1h-5v1h-5v1h-4v1h-3l-9,6Zm321,7v-2h1v-1h-1c-3.251-5.648-13.581-9.624-22-10l-7,6c-2.068,2.919-2.588,6.507-5,9-2.252,2.328-5.89,3.57-8,6-8.088.141-14.173,0.067-19-3l-1-2h-2l-2-3h-1v-2l-4-3v-2c-0.756-1.023-3.029-1.777-4-3-3.5.735-5.451,2.565-8,4h-2l-1,2h-2v1l-4,1v1l-5,1v1h-3c-2.339.89-6.722,3.309-11,2v-1l-5-1c-1.584-2.731-2.742-2.446-3-7,1.139-1.139.4,0,1-2l8-5h4v-1l6-1v-1l4-1v-1h3v-1l4-1v-1l27-9,14-1v-1h12v1h9v1l9,1v1h4v1h3v1h3v1h3v1h3v1l9,2v1h2v1h3v1h2l1,2,4,1,1,2c3.24,3.037,6.356,4.181,7,10-1.769,1.368.389,0.247-1,2l-3,2v1h-2l-1,2h-1v4c3.025,2.406,4.041,5.365,4,11-3.412,2.037-3.107,3.866-9,4-2.365-2.731-11.826-6.754-17-7v1l-5,1v1h-2v1h-2l-1,2h-2l-1,2h-2v1h-2v1l-7,1c-15.945,5.129-36.992,2-51-3h-4v-1h-3v-1h-3v-1h-2v-1h-3v-1h-3v-1h-2v-1c-1.252-.677-4.381-0.9-5-2v-3c1.139-1.139.4,0,1-2,1.846-.987,4.136-3.324,6-4,3.3-1.2,14.613.23,17,1v1l9,1c5.117,1.7,20.61,6.432,29,4l18-5v-1h2v-1h3C407.214,238.717,412.789,235.393,420,235ZM152,215l-4-1v1c-3.4.88-3.065,1.861-3,6a12.71,12.71,0,0,0,5,1,3.982,3.982,0,0,1,2-2v-5Zm217,4c-1.382,2.612-1.769,1.693-2,6,2.078,1.094,1.771,1.611,5,2,1.382-2.612,1.769-1.693,2-6a3.982,3.982,0,0,1-2-2h-3ZM255,236h9c1.412,2.663,2.03,4.22,2,9,2.1,2.442-.06,7.247,1,11h1v8c2.575,9.025,3.2,20.409,6,29,1.154,3.543.686,6.932,2,10h-1c-1.874,2.673-5.514,1.993-10,2H241a19.168,19.168,0,0,1-1-7c1.928-2.253.938-5.79,2-9h1v-5c3.33-10.331,4.779-23.337,8-34q0.5-5.5,1-11A18.772,18.772,0,0,0,255,236Zm-1,105,3,1v-1c4.6-1.212,4.86-4.375,7-8h1v-2c0.658-.946,3.069-1.835,4-3l22-2v-1l4-1,3-4h1l2-6h1v-3h1v-2h1v-3h1c2.089-3.9,2.133-5.733,8-6,0.844,1.135-.127.145,1,1,0.3,4.687,2.843,12.3,1,18h-1q-0.5,3-1,6h-1v2l-2,1v2l-2,1v2l-3,2v1h-2l-2,3-6,2v1l-9,2h-9v1c-5.8,4.408-.5,8.275-3,15h-1v2h-1l-1,3h-1v1c-8.34,5.785-27.638,2.928-30-6-2.089-2.285-1.1-10.884-1-15l-3-2v-1h-2v-1c-4.948-2.06-12.526.739-18-1v-1l-5-1c-6-11.073-14.073-18.553-11-36,2.84-1.679,2.719-3.451,7-4,0.991,1.977,3.124,4.068,4,6v3h1v2h1v3h1c2.341,4.747,3.414,10.573,9,12,2.484,2.071,7.243-.111,11,1v1h5C245.5,328.244,252.459,333.776,254,341Zm122,55-1-4h-1v-5c-1.812-5.616-3.191-15.509-9-17-4.229-4.125-12.7.278-17,2h-3v1h-2v1h-3v1l-4,1v1h-3v1h-2v1l-4,1v1h-3v1h-2v1h-3v1h-4v1h-3v1l-28,5H272c-3.773,1.055-18.808,2.454-24,1v-1H236v-1h-8v-1h-7v-1h-5v-1h-5v-1h-4v-1h-4v-1h-4v-1h-4v-1h-3v-1h-3v-1h-3v-1l-6-1v-1h-2v-1h-3v-1h-2v-1h-3v-1l-4-1v-1h-3v-1h-2v-1h-2v-1l-6-2v-1c-1.922-.671-7.161.46-8,1l-1,2-2,1v2h-1v2h-1v3h-1c-2.362,5.931-1.576,13.2-8,15v1h-3c-2.809-3.128-6.715-3.1-8-8-3.554-3.069-3.121-10.277-3-17,1.968-1.738.847-2.33,2-4l7-6v-2l12-11c3.682-3.681,4.778-7.627,12-8l3,4h1v2h1l2,6h1v3h1l2,6h1v2l5,4,2,3h2l1,2,5,1v1h2v1h4c9.55,3.227,21.882,3,35,3h19v1h8v1h4v1h4v1c7.679,2.254,10.033-3.468,15-4a22.688,22.688,0,0,1,9,1h18v1h9c11.546,0.01,22.649.289,31-3v-1h3v-1l4-1,1-2h2l1-2,5-4v-2l2-2v-2h1v-2h1l1-5h1v-2h1c1.961-3.519,1.581-5.745,6-7,2.395-2.12,7.231-.611,9,1,2.968,2.7,3.989,8.215,6,12h1v2h1v2h1v2l2,1v2h1l2,3c3.533,2.614,4.658.674,5,7h1q-0.5,3.5-1,7c-0.266,10.5-3.991,17.344-14,18C376.861,395.861,378,396.6,376,396ZM147,382l12,2v1l10,2v1l9,2v1h3v1h3v1h3v1h3v1h3v1h3v1l6,1v1h4v1h3v1h3v1h4v1h4v1h4v1h5v1h5v1h7v1h10v1l26-1v-1h6v-1h5v-1l12-2v-1l7-1v-1h3v-1h3v-1h4v-1h3v-1h4v-1l6-1v-1h2v-1l9-2v-1l8-1v-1h14a3.982,3.982,0,0,0,2,2c-5.5,11.859-18.043,16.718-30,22h-3v1l-4,1v1h-3v1l-6,2v1h-2v1h-2v1h-2v1h-2v1h-2v1l-4,1v1h-2v1h-2v1l-6,2v1l-6,1v1h-2v1h-3v1l-8,1v1l-13,1v1H247v-1l-14-1v-1l-8-1v-1l-6-1v-1h-2v-1h-3v-1h-2v-1h-3v-1l-6-2v-1h-2v-1h-2l-2-2h-2l-1-2h-2v-1h-2l-1-2-4-1-1-2-4-1-1-2-4-1-1-2-4-1v-1l-3-1-1-2-4-1-1-2h-2l-2-3h-2l-1-2c-3.518-2.395-9.081-4.175-10-9h1Z" transform="translate(-2 -2)"/>
</svg>
